# xmcd
#
# Track frame offsets:
#	150
#	12126
#	24076
#	39110
#	53304
#	65967
#	80861
#	98347
#	111840
#	127831
#	146247
#	172741
#	189349
#
# Disc length: 2740 seconds
#
# Revision: 1
# Processed by: cddbd v1.5.2PL0 Copyright (c) Steve Scherf et al.
# Submitted via: audiograbber 1.83.01
#
DISCID=950ab20d
DTITLE=Doug Deveaux - What a Way to Live
DYEAR=2013
DGENRE=Country
TTITLE0=What a Way to Live
TTITLE1=Wine Me Up
TTITLE2=Who'll Turn Out the Lights
TTITLE3=Some Broken Hearts Never Mend
TTITLE4=Someone Had to Teach You
TTITLE5=The Note
TTITLE6=April's Fool
TTITLE7=Lovin' on Back Streets
TTITLE8=Miami My Amy
TTITLE9=I Wouldn't Have Missed It for the World
TTITLE10=I Never Go Around Mirrors
TTITLE11=Wound Time Can't Erase
TTITLE12=Thanks Again
EXTD=
EXTT0=
EXTT1=
EXTT2=
EXTT3=
EXTT4=
EXTT5=
EXTT6=
EXTT7=
EXTT8=
EXTT9=
EXTT10=
EXTT11=
EXTT12=
PLAYORDER=
